<svg id="undraw_agreement_aajr" xmlns="http://www.w3.org/2000/svg" xmlns:xlink="http://www.w3.org/1999/xlink" width="209.568" height="202.941" viewBox="0 0 209.568 202.941">
  <defs>
    <linearGradient id="linear-gradient" x1="0.502" y1="1.014" x2="0.502" y2="0.014" gradientUnits="objectBoundingBox">
      <stop offset="0" stop-color="gray" stop-opacity="0.251"/>
      <stop offset="0.54" stop-color="gray" stop-opacity="0.122"/>
      <stop offset="1" stop-color="gray" stop-opacity="0.102"/>
    </linearGradient>
    <linearGradient id="linear-gradient-2" x1="1.068" y1="0.668" x2="1.068" y2="-0.332" xlink:href="#linear-gradient"/>
    <linearGradient id="linear-gradient-3" x1="2.842" y1="0.652" x2="2.842" y2="-0.351" xlink:href="#linear-gradient"/>
    <linearGradient id="linear-gradient-4" x1="1.073" y1="0.27" x2="1.073" y2="-0.729" xlink:href="#linear-gradient"/>
    <linearGradient id="linear-gradient-5" x1="0.251" y1="0.451" x2="0.251" y2="-0.549" xlink:href="#linear-gradient"/>
    <linearGradient id="linear-gradient-6" x1="5.173" y1="0.029" x2="5.173" y2="-0.871" xlink:href="#linear-gradient"/>
    <linearGradient id="linear-gradient-7" x1="0.5" y1="1" x2="0.5" y2="0" xlink:href="#linear-gradient"/>
  </defs>
  <g id="Group_25" data-name="Group 25" transform="translate(17.791 0)" opacity="0.5">
    <rect id="Rectangle_179" data-name="Rectangle 179" width="121.369" height="167.695" transform="translate(0 50.369) rotate(-24.52)" fill="url(#linear-gradient)"/>
  </g>
  <rect id="Rectangle_180" data-name="Rectangle 180" width="118.281" height="163.988" transform="translate(19.707 50.853) rotate(-24.52)" fill="#fff"/>
  <rect id="Rectangle_181" data-name="Rectangle 181" width="58.678" height="14.214" transform="translate(45.166 34.478) rotate(-24.52)" fill="url(#linear-gradient-2)"/>
  <path id="Path_257" data-name="Path 257" d="M420.9,59.4a8.4,8.4,0,1,0,10.948,4.237A8.3,8.3,0,0,0,420.9,59.4Zm5.5,12.049a4.848,4.848,0,1,1,2.295-6.373,4.791,4.791,0,0,1-2.295,6.375Z" transform="translate(-354.803 -49.736)" fill="url(#linear-gradient-3)"/>
  <rect id="Rectangle_182" data-name="Rectangle 182" width="57.441" height="13.588" transform="translate(45.731 34.231) rotate(-24.52)" fill="#fff"/>
  <path id="Path_258" data-name="Path 258" d="M422.141,61.781a8.03,8.03,0,1,0,10.638,3.974A8.03,8.03,0,0,0,422.141,61.781ZM427.4,73.3a4.632,4.632,0,1,1,2.292-6.138A4.632,4.632,0,0,1,427.4,73.3Z" transform="translate(-355.793 -51.554)" fill="#fff"/>
  <rect id="Rectangle_183" data-name="Rectangle 183" width="25.325" height="25.325" transform="translate(35.788 72.71) rotate(-24.52)" fill="url(#linear-gradient-4)"/>
  <rect id="Rectangle_184" data-name="Rectangle 184" width="25.325" height="25.325" transform="translate(56.694 118.335) rotate(-24.52)" fill="url(#linear-gradient-5)"/>
  <rect id="Rectangle_185" data-name="Rectangle 185" width="23.471" height="23.471" transform="translate(37.015 73.168) rotate(-24.52)" fill="#69f0ae"/>
  <rect id="Rectangle_186" data-name="Rectangle 186" width="23.471" height="23.471" transform="translate(57.65 118.404) rotate(-24.52)" fill="#fff"/>
  <rect id="Rectangle_187" data-name="Rectangle 187" width="32.171" height="2.245" transform="translate(75.425 63.612) rotate(-24.52)" fill="#e0e0e0"/>
  <rect id="Rectangle_188" data-name="Rectangle 188" width="53.12" height="2.245" transform="translate(76.824 66.675) rotate(-24.52)" fill="#e0e0e0"/>
  <rect id="Rectangle_189" data-name="Rectangle 189" width="49.378" height="2.245" transform="translate(78.219 69.739) rotate(-24.52)" fill="#e0e0e0"/>
  <rect id="Rectangle_190" data-name="Rectangle 190" width="32.171" height="2.245" transform="translate(96.061 108.85) rotate(-24.52)" fill="#e0e0e0"/>
  <rect id="Rectangle_191" data-name="Rectangle 191" width="53.12" height="2.245" transform="translate(97.459 111.911) rotate(-24.52)" fill="#e0e0e0"/>
  <rect id="Rectangle_192" data-name="Rectangle 192" width="49.378" height="2.245" transform="translate(98.855 114.977) rotate(-24.52)" fill="#e0e0e0"/>
  <path id="Path_259" data-name="Path 259" d="M194.789,309.108l5.5,1.786L202.1,300.31l2.676.732-3.01,13.084-8.293-3.635Z" transform="translate(-147.654 -229.196)" fill="url(#linear-gradient-6)"/>
  <path id="Path_260" data-name="Path 260" d="M198.3,312.211l4.781,1.551,1.572-9.2,2.326.637-2.617,11.376-7.211-3.159Z" transform="translate(-150.462 -232.439)" fill="#fff"/>
  <path id="Path_261" data-name="Path 261" d="M285.979,504.421l4.781,1.551,1.572-9.2,2.326.637-2.617,11.377-7.211-3.159Z" transform="translate(-217.378 -379.131)" fill="#fff"/>
  <rect id="Rectangle_193" data-name="Rectangle 193" width="75.046" height="25.015" transform="translate(92.118 157.503) rotate(-24.52)" fill="#e0e0e0"/>
  <path id="Path_262" data-name="Path 262" d="M666.638,629.873c-2.624-.748-5.309-.606-6.145,2.394-.282,1.011-.315,2.581-1.4,3.1-1.6.767-3.521-.767-4.907-1.392a5.084,5.084,0,0,0-6.725,2.077,11.742,11.742,0,0,0-1.34,4.083,8.745,8.745,0,0,1-.384,1.949c-.5,1.106-2.044,1.006-3.06.964A6.607,6.607,0,0,1,642,643a6,6,0,0,0,1.137-3.82c-.066-2.243-1.523-4.7-4.068-4.421a4.219,4.219,0,0,0-3.63,4.668,5.721,5.721,0,0,0,3.034,4.263c-.777.343-1.606.611-2.34.966a9.81,9.81,0,0,0-1,.557,8.265,8.265,0,0,0-7.13-.18c-.966.528-.26,2.1.71,1.565a5.87,5.87,0,0,1,4.786-.095l.133.047a4.286,4.286,0,0,0-.414.642c-.9,1.743,0,4.5,2.183,4.689,3.079.263,3.223-3.806,1.551-5.425-.071-.069-.142-.135-.218-.2.691-.334,1.44-.585,2.1-.867a8.743,8.743,0,0,0,1.634-.909l.118.031c2.351.533,6.022.7,6.868-2.15.725-2.472.793-7.723,4.7-7.237,1.594.2,2.9,1.421,4.417,1.864a4.164,4.164,0,0,0,4.04-.578,5.811,5.811,0,0,0,1.407-3.178,3.194,3.194,0,0,1,.765-1.707c.864-.755,2.292-.31,3.256-.035C667.095,631.787,667.706,630.177,666.638,629.873Zm-30.549,20.032c-.519.514-1.068.107-1.345-.431a1.69,1.69,0,0,1,.237-1.873,3.258,3.258,0,0,1,.225-.27c1.025.663,1.864,1.613.893,2.574Zm1.819-12.788a1.912,1.912,0,0,1,3.185.587,4.7,4.7,0,0,1-.535,4.476,3.608,3.608,0,0,1-.391.44,4.988,4.988,0,0,1-1.688-.964c-1.26-1.137-1.973-3.237-.561-4.547Z" transform="translate(-516.141 -485.378)" fill="#fff"/>
  <path id="Path_263" data-name="Path 263" d="M321.819,134.372,302.7,141.824a54.913,54.913,0,0,1-18.666-4.784,29.543,29.543,0,0,0-26.049.2c-18.708.448-29-1.949-34.5-4.218l1.449-2.974-19.376-7.554L157.12,100.78v88.985l16.953,7.554,9.094-21.815,19.97,9.236L206.972,175l13.112,9.731.893.751-1.229,1.276a6.408,6.408,0,0,0,0,8.812h0a5.835,5.835,0,0,0,8.478,0l-.673.71a6.408,6.408,0,0,0,0,8.812h0a5.835,5.835,0,0,0,8.478,0l3.884-4.038h0l-2.667,2.771a6.408,6.408,0,0,0,0,8.812h0a5.835,5.835,0,0,0,8.478,0l3.834-3.986h0l-1.613,1.677a4.476,4.476,0,0,0,0,6.157,4.075,4.075,0,0,0,5.92,0l2.558-2.657c4.393,3.209,7.947,5.551,9.688,6.157,7.254,2.515,7.254-2.522,7.254-2.522,9.688,5.035,14.533-5.035,14.533-5.035,12.111,5.035,12.111-7.554,12.111-7.554,3.026,2.1,5.21,1.137,6.735-.71a8.205,8.205,0,0,0,.9-8.878l11.575-10.7,5.006,10.235,19.97-9.236,9.094,20.16,13.392-5.98V111.711Z" transform="translate(-157.12 -81.871)" fill="url(#linear-gradient-7)"/>
  <path id="Path_264" data-name="Path 264" d="M561.126,350.541l-21.081,18.737L523.65,338.828l37.476-9.368Z" transform="translate(-399.643 -251.443)" fill="#be7c5e"/>
  <path id="Path_265" data-name="Path 265" d="M368.432,231.69s6.766,9.368,46.844,7.026L438.7,273.85l15.7,17.659a7.467,7.467,0,0,1,.185,9.8c-1.471,1.707-3.585,2.6-6.512.651,0,0,0,11.71-11.71,7.026,0,0-4.684,9.368-14.052,4.684,0,0,0,4.684-7.026,2.342s-44.5-32.789-44.5-32.789L354.38,271.51Z" transform="translate(-307.666 -181.78)" fill="#fda57d"/>
  <path id="Path_266" data-name="Path 266" d="M573.552,257.721a54.5,54.5,0,0,1-20.129-4.545,29.4,29.4,0,0,0-28.1,1.816c-6.844,4.417-12.774,11.729-12.662,23.807,0,0,9.108,9.368,18.737-9.368h7.026s6.766,23.423,25.765,21.076,23.423-4.684,23.423-4.684Z" transform="translate(-428.466 -196.098)" fill="#be7c5e"/>
  <rect id="Rectangle_194" data-name="Rectangle 194" width="11.594" height="18.218" rx="5.797" transform="translate(79.116 103.393) rotate(45)" fill="#be7c5e"/>
  <rect id="Rectangle_195" data-name="Rectangle 195" width="11.594" height="18.218" rx="5.797" transform="translate(71.566 94.545) rotate(45)" fill="#be7c5e"/>
  <rect id="Rectangle_196" data-name="Rectangle 196" width="11.594" height="19.873" rx="5.797" transform="translate(89.654 109.247) rotate(45)" fill="#be7c5e"/>
  <rect id="Rectangle_197" data-name="Rectangle 197" width="8.097" height="13.25" rx="4.048" transform="translate(96.552 118.747) rotate(45)" fill="#be7c5e"/>
  <path id="Path_267" data-name="Path 267" d="M644.93,279.746l-21.079,9.368L602.77,237.586l18.739-7.026Z" transform="translate(-460.026 -175.963)" fill="#fff"/>
  <path id="Path_268" data-name="Path 268" d="M108.25,230.288l21.079,9.368,21.081-51.528L131.671,181.1Z" transform="translate(-82.615 -138.216)" fill="#fff"/>
  <path id="Path_269" data-name="Path 269" d="M9.34,92.09l46.844,21.079L25.737,183.436,9.34,176.41Z" transform="translate(-7.128 -70.285)" fill="#333"/>
  <path id="Path_270" data-name="Path 270" d="M728.744,141.54,681.9,162.621l30.449,70.265,16.395-7.026Z" transform="translate(-520.417 -108.024)" fill="#4d8af0"/>
</svg>
